<svg width="3" height="15" viewBox="0 0 3 15" fill="none" xmlns="http://www.w3.org/2000/svg">
<path fill-rule="evenodd" clip-rule="evenodd" d="M0 1.47444C0 0.659076 0.659075 9.53674e-07 1.47444 9.53674e-07C2.28981 9.53674e-07 2.94888 0.659076 2.94888 1.47444C2.94888 2.28981 2.28981 2.95625 1.47444 2.95625C0.659075 2.95625 0 2.30308 0 1.48919L0 1.47444ZM0 7.3865C0 6.57114 0.659075 5.91206 1.47444 5.91206C2.28981 5.91206 2.94888 6.57114 2.94888 7.3865C2.94888 8.20187 2.28981 8.86684 1.47444 8.86684C0.659075 8.86684 0 8.21514 0 7.39977L0 7.3865ZM0 13.2972C0 12.4819 0.659075 11.8228 1.47444 11.8228C2.28981 11.8228 2.94888 12.4819 2.94888 13.2972C2.94888 14.1126 2.28981 14.7791 1.47444 14.7791C0.659075 14.7791 0 14.1259 0 13.3105L0 13.2972Z" fill="#212525"/>
</svg>
